# xmcd
#
# Track frame offsets:
# 150
# 11169
# 29499
# 40405
# 53080
# 66504
# 81218
# 89834
# 100272
# 113702
# 127115
# 140747
# 153284
# 166842
# 177650
# 191862
# 206861
# 218973
# 230675
# 243256
# 256911
# 270281
# 283368
# 293305
# 305813
#
# Disc length: 4264 seconds
#
#
# Revision: 0
# Processed by: cddbd v1.5.1PL2 Copyright (c) Steve Scherf et al.
# Submitted via: FreeRIP 2.945 
#
DISCID=8610a619
DTITLE=Vern Gosdin - The Voice A 3 CD Collection [CD 1)
DYEAR=1997
DGENRE=Country
TTITLE0=Right In The Wrong Direction
TTITLE1=A Better Time
TTITLE2=A Picture Of Me (With Ann Street)
TTITLE3=All The Way Through
TTITLE4=Alone
TTITLE5=Any Old Miracle
TTITLE6=Baby That's Cold
TTITLE7=Back In The Swing Of Things
TTITLE8=Chiseled In Stone
TTITLE9=Dim Lights (WithLou Reid)
TTITLE10=Do You Believe Me Now
TTITLE11=Dream Of Me
TTITLE12=Favorite Fool Of All
TTITLE13=Fire In Our Bedroom
TTITLE14=Friday Night Feeling
TTITLE15=How Can I Believe In You
TTITLE16=I Can Tell By The Way You Dance
TTITLE17=I Couldn't Love You More
TTITLE18=I Feel Love Closin' In
TTITLE19=I Know The Way To You By Heart
TTITLE20=I Know What It's Like
TTITLE21=I Wonder Where We'd Be Tonight
TTITLE22=Maybe Then I'll Be Over You
TTITLE23=I'll Fly Away
TTITLE24=I'll Try
EXTD=VGM Records
EXTT0=
EXTT1=
EXTT2=
EXTT3=
EXTT4=
EXTT5=
EXTT6=
EXTT7=
EXTT8=
EXTT9=
EXTT10=
EXTT11=
EXTT12=
EXTT13=
EXTT14=
EXTT15=
EXTT16=
EXTT17=
EXTT18=
EXTT19=
EXTT20=
EXTT21=
EXTT22=
EXTT23=
EXTT24=
PLAYORDER=
